# xmcd
#
# Track frame offsets:
#	183
#	14558
#	26220
#	39325
#	58040
#	70280
#	82478
#	93885
#	109315
#	121578
#	135943
#	146518
#
# Disc length: 2159
#
# Revision: 1
# Processed by: cddbd v1.5.1PL0 Copyright (c) Steve Scherf et al.
# Submitted via: audiograbber 1.81.01
# Normalized: r0:TRMNUM
#
DISCID=a4086d0c
DTITLE=Little Tony - I grandi successi originali cd2
DYEAR=1900
DGENRE=pop
TTITLE0=un uomo piange solo per amore
TTITLE1=la donna di picche
TTITLE2=bada bambina
TTITLE3=la spada nel cuore
TTITLE4=perdonala
TTITLE5=la voglia di te
TTITLE6=il rock della prigione
TTITLE7=ti senti sola stasera
TTITLE8=portafortuna
TTITLE9=sospetto
TTITLE10=mi dai lo shock
TTITLE11=resta con me
EXTD=
EXTT0=
EXTT1=
EXTT2=
EXTT3=
EXTT4=
EXTT5=
EXTT6=
EXTT7=
EXTT8=
EXTT9=
EXTT10=
EXTT11=
PLAYORDER=
